<svg xmlns="http://www.w3.org/2000/svg" viewBox="0 0 148.15 138.27"><defs><style>.cls-1{fill:#a51e34;}</style></defs><title>BordeCorazón</title><g id="Capa_2" data-name="Capa 2"><g id="OBJECTS"><rect class="cls-1" x="138.27" y="59.26" width="9.88" height="9.87"/><rect class="cls-1" x="138.27" y="49.38" width="9.88" height="9.88"/><rect class="cls-1" x="138.27" y="39.5" width="9.88" height="9.88"/><rect class="cls-1" x="138.27" y="29.63" width="9.88" height="9.87"/><rect class="cls-1" x="128.39" y="69.13" width="9.88" height="9.88"/><rect class="cls-1" x="128.39" y="19.75" width="9.88" height="9.88"/><rect class="cls-1" x="118.52" y="79.01" width="9.87" height="9.88"/><rect class="cls-1" x="118.52" y="9.88" width="9.87" height="9.87"/><rect class="cls-1" x="108.64" y="88.89" width="9.88" height="9.87"/><rect class="cls-1" x="108.64" width="9.88" height="9.88"/><rect class="cls-1" x="98.76" y="98.76" width="9.88" height="9.88"/><rect class="cls-1" x="98.76" width="9.88" height="9.88"/><rect class="cls-1" x="88.89" y="108.64" width="9.87" height="9.88"/><rect class="cls-1" x="88.89" width="9.87" height="9.88"/><rect class="cls-1" x="79.01" y="118.52" width="9.88" height="9.87"/><rect class="cls-1" x="79.01" y="9.88" width="9.88" height="9.87"/><rect class="cls-1" x="69.13" y="128.39" width="9.88" height="9.88"/><rect class="cls-1" x="69.13" y="19.75" width="9.88" height="9.88"/><rect class="cls-1" x="59.26" y="118.52" width="9.87" height="9.87"/><rect class="cls-1" x="59.26" y="9.88" width="9.87" height="9.87"/><rect class="cls-1" x="49.38" y="108.64" width="9.88" height="9.88"/><rect class="cls-1" x="49.38" width="9.88" height="9.88"/><rect class="cls-1" x="39.5" y="98.76" width="9.88" height="9.88"/><rect class="cls-1" x="39.5" width="9.88" height="9.88"/><rect class="cls-1" x="29.63" y="88.89" width="9.87" height="9.87"/><rect class="cls-1" x="29.63" width="9.87" height="9.88"/><rect class="cls-1" x="19.75" y="79.01" width="9.88" height="9.88"/><rect class="cls-1" x="19.75" y="9.88" width="9.88" height="9.87"/><rect class="cls-1" x="9.87" y="69.13" width="9.88" height="9.88"/><rect class="cls-1" x="9.87" y="19.75" width="9.88" height="9.88"/><rect class="cls-1" y="59.26" width="9.87" height="9.87"/><rect class="cls-1" y="49.38" width="9.87" height="9.88"/><rect class="cls-1" y="39.5" width="9.87" height="9.88"/><rect class="cls-1" y="29.63" width="9.87" height="9.87"/></g></g></svg>