<svg xmlns="http://www.w3.org/2000/svg" viewBox="0 0 128.4 118.51"><defs><style>.cls-1{fill:#ad152f;}.cls-2{fill:#c92337;}.cls-3{fill:#df7b87;}</style></defs><title>Corazon</title><g id="Capa_2" data-name="Capa 2"><g id="OBJECTS"><rect class="cls-1" x="118.52" y="49.38" width="9.88" height="9.87"/><rect class="cls-2" x="118.52" y="39.5" width="9.88" height="9.88"/><rect class="cls-2" x="118.52" y="29.62" width="9.88" height="9.88"/><rect class="cls-1" x="118.52" y="19.75" width="9.88" height="9.87"/><rect class="cls-1" x="108.65" y="59.25" width="9.87" height="9.88"/><rect class="cls-2" x="108.65" y="49.38" width="9.87" height="9.87"/><rect class="cls-2" x="108.65" y="39.5" width="9.87" height="9.88"/><rect class="cls-2" x="108.65" y="29.62" width="9.87" height="9.88"/><rect class="cls-2" x="108.65" y="19.75" width="9.87" height="9.87"/><rect class="cls-2" x="108.65" y="9.87" width="9.87" height="9.88"/><rect class="cls-1" x="98.77" y="69.13" width="9.88" height="9.88"/><rect class="cls-2" x="98.77" y="59.25" width="9.88" height="9.88"/><rect class="cls-2" x="98.77" y="49.38" width="9.88" height="9.87"/><rect class="cls-2" x="98.77" y="39.5" width="9.88" height="9.88"/><rect class="cls-2" x="98.77" y="29.62" width="9.88" height="9.88"/><rect class="cls-2" x="98.77" y="19.75" width="9.88" height="9.87"/><rect class="cls-2" x="98.77" y="9.87" width="9.88" height="9.88"/><rect class="cls-2" x="98.77" width="9.88" height="9.87"/><rect class="cls-1" x="88.89" y="79.01" width="9.88" height="9.87"/><rect class="cls-2" x="88.89" y="69.13" width="9.88" height="9.88"/><rect class="cls-2" x="88.89" y="59.25" width="9.88" height="9.88"/><rect class="cls-2" x="88.89" y="49.38" width="9.88" height="9.87"/><rect class="cls-2" x="88.89" y="39.5" width="9.88" height="9.88"/><rect class="cls-2" x="88.89" y="29.62" width="9.88" height="9.88"/><rect class="cls-2" x="88.89" y="19.75" width="9.88" height="9.87"/><rect class="cls-2" x="88.89" y="9.87" width="9.88" height="9.88"/><rect class="cls-2" x="88.89" width="9.88" height="9.87"/><rect class="cls-1" x="79.02" y="88.88" width="9.87" height="9.88"/><rect class="cls-2" x="79.02" y="79.01" width="9.87" height="9.87"/><rect class="cls-2" x="79.02" y="69.13" width="9.87" height="9.88"/><rect class="cls-2" x="79.02" y="59.25" width="9.87" height="9.88"/><rect class="cls-2" x="79.02" y="49.38" width="9.87" height="9.87"/><rect class="cls-2" x="79.02" y="39.5" width="9.87" height="9.88"/><rect class="cls-2" x="79.02" y="29.62" width="9.87" height="9.88"/><rect class="cls-2" x="79.02" y="19.75" width="9.87" height="9.87"/><rect class="cls-2" x="79.02" y="9.87" width="9.87" height="9.88"/><rect class="cls-2" x="79.02" width="9.87" height="9.87"/><rect class="cls-1" x="69.14" y="98.76" width="9.88" height="9.88"/><rect class="cls-2" x="69.14" y="88.88" width="9.88" height="9.88"/><rect class="cls-2" x="69.14" y="79.01" width="9.88" height="9.87"/><rect class="cls-2" x="69.14" y="69.13" width="9.88" height="9.88"/><rect class="cls-2" x="69.14" y="59.25" width="9.88" height="9.88"/><rect class="cls-2" x="69.14" y="49.38" width="9.88" height="9.87"/><rect class="cls-2" x="69.14" y="39.5" width="9.88" height="9.88"/><rect class="cls-2" x="69.14" y="29.62" width="9.88" height="9.88"/><rect class="cls-2" x="69.14" y="19.75" width="9.88" height="9.87"/><rect class="cls-2" x="69.14" y="9.87" width="9.88" height="9.88"/><rect class="cls-1" x="59.26" y="108.64" width="9.88" height="9.87"/><rect class="cls-2" x="59.26" y="98.76" width="9.88" height="9.88"/><rect class="cls-2" x="59.26" y="88.88" width="9.88" height="9.88"/><rect class="cls-2" x="59.26" y="79.01" width="9.88" height="9.87"/><rect class="cls-2" x="59.26" y="69.13" width="9.88" height="9.88"/><rect class="cls-2" x="59.26" y="59.25" width="9.88" height="9.88"/><rect class="cls-2" x="59.26" y="49.38" width="9.88" height="9.87"/><rect class="cls-2" x="59.26" y="39.5" width="9.88" height="9.88"/><rect class="cls-2" x="59.26" y="29.62" width="9.88" height="9.88"/><rect class="cls-2" x="59.26" y="19.75" width="9.88" height="9.87"/><rect class="cls-2" x="49.39" y="98.76" width="9.87" height="9.88"/><rect class="cls-2" x="49.39" y="88.88" width="9.87" height="9.88"/><rect class="cls-2" x="49.39" y="79.01" width="9.87" height="9.87"/><rect class="cls-2" x="49.39" y="69.13" width="9.87" height="9.88"/><rect class="cls-2" x="49.39" y="59.25" width="9.87" height="9.88"/><rect class="cls-2" x="49.39" y="49.38" width="9.87" height="9.87"/><rect class="cls-2" x="49.39" y="39.5" width="9.87" height="9.88"/><rect class="cls-2" x="49.39" y="29.62" width="9.87" height="9.88"/><rect class="cls-2" x="49.39" y="19.75" width="9.87" height="9.87"/><rect class="cls-2" x="49.39" y="9.87" width="9.87" height="9.88"/><rect class="cls-2" x="39.51" y="88.88" width="9.88" height="9.88"/><rect class="cls-3" x="39.51" y="79.01" width="9.88" height="9.87"/><rect class="cls-2" x="39.51" y="69.13" width="9.88" height="9.88"/><rect class="cls-2" x="39.51" y="59.25" width="9.88" height="9.88"/><rect class="cls-2" x="39.51" y="49.38" width="9.88" height="9.87"/><rect class="cls-2" x="39.51" y="39.5" width="9.88" height="9.88"/><rect class="cls-2" x="39.51" y="29.62" width="9.88" height="9.88"/><rect class="cls-2" x="39.51" y="19.75" width="9.88" height="9.87"/><rect class="cls-2" x="39.51" y="9.87" width="9.88" height="9.88"/><rect class="cls-2" x="39.51" width="9.88" height="9.87"/><rect class="cls-2" x="29.63" y="79.01" width="9.88" height="9.87"/><rect class="cls-3" x="29.63" y="69.13" width="9.88" height="9.88"/><rect class="cls-3" x="29.63" y="59.25" width="9.88" height="9.88"/><rect class="cls-2" x="29.63" y="49.38" width="9.88" height="9.87"/><rect class="cls-2" x="29.63" y="39.5" width="9.88" height="9.88"/><rect class="cls-2" x="29.63" y="29.62" width="9.88" height="9.88"/><rect class="cls-2" x="29.63" y="19.75" width="9.88" height="9.87"/><rect class="cls-2" x="29.63" y="9.87" width="9.88" height="9.88"/><rect class="cls-3" x="29.63" width="9.88" height="9.87"/><rect class="cls-2" x="19.76" y="69.13" width="9.87" height="9.88"/><rect class="cls-3" x="19.76" y="59.25" width="9.87" height="9.88"/><rect class="cls-3" x="19.76" y="49.38" width="9.87" height="9.87"/><rect class="cls-3" x="19.76" y="39.5" width="9.87" height="9.88"/><rect class="cls-3" x="19.76" y="29.62" width="9.87" height="9.88"/><rect class="cls-3" x="19.76" y="19.75" width="9.87" height="9.87"/><rect class="cls-2" x="19.76" y="9.87" width="9.87" height="9.88"/><rect class="cls-2" x="19.76" width="9.87" height="9.87"/><rect class="cls-2" x="9.88" y="59.25" width="9.88" height="9.88"/><rect class="cls-3" x="9.88" y="49.38" width="9.88" height="9.87"/><rect class="cls-3" x="9.88" y="39.5" width="9.88" height="9.88"/><rect class="cls-3" x="9.88" y="29.62" width="9.88" height="9.88"/><rect class="cls-3" x="9.88" y="19.75" width="9.88" height="9.87"/><rect class="cls-2" x="9.88" y="9.87" width="9.88" height="9.88"/><rect class="cls-2" y="49.38" width="9.88" height="9.87"/><rect class="cls-2" y="39.5" width="9.88" height="9.88"/><rect class="cls-2" y="29.62" width="9.88" height="9.88"/><rect class="cls-2" y="19.75" width="9.88" height="9.87"/></g></g></svg>