<svg id="OBJECTS" xmlns="http://www.w3.org/2000/svg" viewBox="0 0 148.15 138.27"><defs><style>.cls-1{fill:#ad152f;}.cls-2{fill:#c92337;}.cls-3{fill:#df7b87;}</style></defs><title>Corazon</title><rect class="cls-1" x="138.27" y="59.26" width="9.88" height="9.87"/><rect class="cls-1" x="138.27" y="49.38" width="9.88" height="9.88"/><rect class="cls-1" x="138.27" y="39.5" width="9.88" height="9.88"/><rect class="cls-1" x="138.27" y="29.63" width="9.88" height="9.87"/><rect class="cls-1" x="128.39" y="69.13" width="9.88" height="9.88"/><rect class="cls-1" x="128.39" y="59.26" width="9.88" height="9.87"/><rect class="cls-2" x="128.39" y="49.38" width="9.88" height="9.88"/><rect class="cls-2" x="128.39" y="39.5" width="9.88" height="9.88"/><rect class="cls-1" x="128.39" y="29.63" width="9.88" height="9.87"/><rect class="cls-1" x="128.39" y="19.75" width="9.88" height="9.88"/><rect class="cls-1" x="118.52" y="79.01" width="9.87" height="9.88"/><rect class="cls-1" x="118.52" y="69.13" width="9.87" height="9.88"/><rect class="cls-2" x="118.52" y="59.26" width="9.87" height="9.87"/><rect class="cls-2" x="118.52" y="49.38" width="9.87" height="9.88"/><rect class="cls-2" x="118.52" y="39.5" width="9.87" height="9.88"/><rect class="cls-2" x="118.52" y="29.63" width="9.87" height="9.87"/><rect class="cls-2" x="118.52" y="19.75" width="9.87" height="9.88"/><rect class="cls-1" x="118.52" y="9.88" width="9.87" height="9.87"/><rect class="cls-1" x="108.64" y="88.89" width="9.88" height="9.87"/><rect class="cls-1" x="108.64" y="79.01" width="9.88" height="9.88"/><rect class="cls-2" x="108.64" y="69.13" width="9.88" height="9.88"/><rect class="cls-2" x="108.64" y="59.26" width="9.88" height="9.87"/><rect class="cls-2" x="108.64" y="49.38" width="9.88" height="9.88"/><rect class="cls-2" x="108.64" y="39.5" width="9.88" height="9.88"/><rect class="cls-2" x="108.64" y="29.63" width="9.88" height="9.87"/><rect class="cls-2" x="108.64" y="19.75" width="9.88" height="9.88"/><rect class="cls-2" x="108.64" y="9.88" width="9.88" height="9.87"/><rect class="cls-1" x="108.64" width="9.88" height="9.88"/><rect class="cls-1" x="98.76" y="98.76" width="9.88" height="9.88"/><rect class="cls-1" x="98.76" y="88.89" width="9.88" height="9.87"/><rect class="cls-2" x="98.76" y="79.01" width="9.88" height="9.88"/><rect class="cls-2" x="98.76" y="69.13" width="9.88" height="9.88"/><rect class="cls-2" x="98.76" y="59.26" width="9.88" height="9.87"/><rect class="cls-2" x="98.76" y="49.38" width="9.88" height="9.88"/><rect class="cls-2" x="98.76" y="39.5" width="9.88" height="9.88"/><rect class="cls-2" x="98.76" y="29.63" width="9.88" height="9.87"/><rect class="cls-2" x="98.76" y="19.75" width="9.88" height="9.88"/><rect class="cls-2" x="98.76" y="9.88" width="9.88" height="9.87"/><rect class="cls-2" x="98.76" width="9.88" height="9.88"/><rect class="cls-1" x="88.89" y="108.64" width="9.87" height="9.88"/><rect class="cls-1" x="88.89" y="98.76" width="9.87" height="9.88"/><rect class="cls-2" x="88.89" y="88.89" width="9.87" height="9.87"/><rect class="cls-2" x="88.89" y="79.01" width="9.87" height="9.88"/><rect class="cls-2" x="88.89" y="69.13" width="9.87" height="9.88"/><rect class="cls-2" x="88.89" y="59.26" width="9.87" height="9.87"/><rect class="cls-2" x="88.89" y="49.38" width="9.87" height="9.88"/><rect class="cls-2" x="88.89" y="39.5" width="9.87" height="9.88"/><rect class="cls-2" x="88.89" y="29.63" width="9.87" height="9.87"/><rect class="cls-2" x="88.89" y="19.75" width="9.87" height="9.88"/><rect class="cls-2" x="88.89" y="9.88" width="9.87" height="9.87"/><rect class="cls-2" x="88.89" width="9.87" height="9.88"/><rect class="cls-1" x="79.01" y="118.52" width="9.88" height="9.87"/><rect class="cls-1" x="79.01" y="108.64" width="9.88" height="9.88"/><rect class="cls-2" x="79.01" y="98.76" width="9.88" height="9.88"/><rect class="cls-2" x="79.01" y="88.89" width="9.88" height="9.87"/><rect class="cls-2" x="79.01" y="79.01" width="9.88" height="9.88"/><rect class="cls-2" x="79.01" y="69.13" width="9.88" height="9.88"/><rect class="cls-2" x="79.01" y="59.26" width="9.88" height="9.87"/><rect class="cls-2" x="79.01" y="49.38" width="9.88" height="9.88"/><rect class="cls-2" x="79.01" y="39.5" width="9.88" height="9.88"/><rect class="cls-2" x="79.01" y="29.63" width="9.88" height="9.87"/><rect class="cls-2" x="79.01" y="19.75" width="9.88" height="9.88"/><rect class="cls-2" x="79.01" y="9.88" width="9.88" height="9.87"/><rect class="cls-1" x="69.13" y="128.39" width="9.88" height="9.88"/><rect class="cls-1" x="69.13" y="118.52" width="9.88" height="9.87"/><rect class="cls-2" x="69.13" y="108.64" width="9.88" height="9.88"/><rect class="cls-2" x="69.13" y="98.76" width="9.88" height="9.88"/><rect class="cls-2" x="69.13" y="88.89" width="9.88" height="9.87"/><rect class="cls-2" x="69.13" y="79.01" width="9.88" height="9.88"/><rect class="cls-2" x="69.13" y="69.13" width="9.88" height="9.88"/><rect class="cls-2" x="69.13" y="59.26" width="9.88" height="9.87"/><rect class="cls-2" x="69.13" y="49.38" width="9.88" height="9.88"/><rect class="cls-2" x="69.13" y="39.5" width="9.88" height="9.88"/><rect class="cls-2" x="69.13" y="29.63" width="9.88" height="9.87"/><rect class="cls-2" x="69.13" y="19.75" width="9.88" height="9.88"/><rect class="cls-1" x="59.26" y="118.52" width="9.87" height="9.87"/><rect class="cls-2" x="59.26" y="108.64" width="9.87" height="9.88"/><rect class="cls-2" x="59.26" y="98.76" width="9.87" height="9.88"/><rect class="cls-2" x="59.26" y="88.89" width="9.87" height="9.87"/><rect class="cls-2" x="59.26" y="79.01" width="9.87" height="9.88"/><rect class="cls-2" x="59.26" y="69.13" width="9.87" height="9.88"/><rect class="cls-2" x="59.26" y="59.26" width="9.87" height="9.87"/><rect class="cls-2" x="59.26" y="49.38" width="9.87" height="9.88"/><rect class="cls-2" x="59.26" y="39.5" width="9.87" height="9.88"/><rect class="cls-2" x="59.26" y="29.63" width="9.87" height="9.87"/><rect class="cls-2" x="59.26" y="19.75" width="9.87" height="9.88"/><rect class="cls-2" x="59.26" y="9.88" width="9.87" height="9.87"/><rect class="cls-1" x="49.38" y="108.64" width="9.88" height="9.88"/><rect class="cls-2" x="49.38" y="98.76" width="9.88" height="9.88"/><rect class="cls-3" x="49.38" y="88.89" width="9.88" height="9.87"/><rect class="cls-2" x="49.38" y="79.01" width="9.88" height="9.88"/><rect class="cls-2" x="49.38" y="69.13" width="9.88" height="9.88"/><rect class="cls-2" x="49.38" y="59.26" width="9.88" height="9.87"/><rect class="cls-2" x="49.38" y="49.38" width="9.88" height="9.88"/><rect class="cls-2" x="49.38" y="39.5" width="9.88" height="9.88"/><rect class="cls-2" x="49.38" y="29.63" width="9.88" height="9.87"/><rect class="cls-2" x="49.38" y="19.75" width="9.88" height="9.88"/><rect class="cls-2" x="49.38" y="9.88" width="9.88" height="9.87"/><rect class="cls-2" x="49.38" width="9.88" height="9.88"/><rect class="cls-2" x="39.5" y="98.76" width="9.88" height="9.88"/><rect class="cls-2" x="39.5" y="88.89" width="9.88" height="9.87"/><rect class="cls-3" x="39.5" y="79.01" width="9.88" height="9.88"/><rect class="cls-3" x="39.5" y="69.13" width="9.88" height="9.88"/><rect class="cls-2" x="39.5" y="59.26" width="9.88" height="9.87"/><rect class="cls-2" x="39.5" y="49.38" width="9.88" height="9.88"/><rect class="cls-2" x="39.5" y="39.5" width="9.88" height="9.88"/><rect class="cls-2" x="39.5" y="29.63" width="9.88" height="9.87"/><rect class="cls-2" x="39.5" y="19.75" width="9.88" height="9.88"/><rect class="cls-3" x="39.5" y="9.88" width="9.88" height="9.87"/><rect class="cls-2" x="39.5" width="9.88" height="9.88"/><rect class="cls-2" x="29.63" y="88.89" width="9.87" height="9.87"/><rect class="cls-2" x="29.63" y="79.01" width="9.87" height="9.88"/><rect class="cls-3" x="29.63" y="69.13" width="9.87" height="9.88"/><rect class="cls-3" x="29.63" y="59.26" width="9.87" height="9.87"/><rect class="cls-3" x="29.63" y="49.38" width="9.87" height="9.88"/><rect class="cls-3" x="29.63" y="39.5" width="9.87" height="9.88"/><rect class="cls-3" x="29.63" y="29.63" width="9.87" height="9.87"/><rect class="cls-2" x="29.63" y="19.75" width="9.87" height="9.88"/><rect class="cls-2" x="29.63" y="9.88" width="9.87" height="9.87"/><rect class="cls-2" x="29.63" width="9.87" height="9.88"/><rect class="cls-2" x="19.75" y="79.01" width="9.88" height="9.88"/><rect class="cls-2" x="19.75" y="69.13" width="9.88" height="9.88"/><rect class="cls-3" x="19.75" y="59.26" width="9.88" height="9.87"/><rect class="cls-3" x="19.75" y="49.38" width="9.88" height="9.88"/><rect class="cls-3" x="19.75" y="39.5" width="9.88" height="9.88"/><rect class="cls-3" x="19.75" y="29.63" width="9.88" height="9.87"/><rect class="cls-2" x="19.75" y="19.75" width="9.88" height="9.88"/><rect class="cls-2" x="19.75" y="9.88" width="9.88" height="9.87"/><rect class="cls-2" x="9.87" y="69.13" width="9.88" height="9.88"/><rect class="cls-2" x="9.87" y="59.26" width="9.88" height="9.87"/><rect class="cls-2" x="9.87" y="49.38" width="9.88" height="9.88"/><rect class="cls-2" x="9.87" y="39.5" width="9.88" height="9.88"/><rect class="cls-2" x="9.87" y="29.63" width="9.88" height="9.87"/><rect class="cls-2" x="9.87" y="19.75" width="9.88" height="9.88"/><rect class="cls-2" y="59.26" width="9.87" height="9.87"/><rect class="cls-2" y="49.38" width="9.87" height="9.88"/><rect class="cls-2" y="39.5" width="9.87" height="9.88"/><rect class="cls-2" y="29.63" width="9.87" height="9.87"/></svg>