<svg id="DESIGNED_BY_FREEPIK" data-name="DESIGNED BY FREEPIK" xmlns="http://www.w3.org/2000/svg" viewBox="0 0 334.16 379.02"><defs><style>.cls-1{fill:#bdac92;}.cls-2{fill:#e5bf2b;}.cls-3{fill:#f6ce23;}.cls-4{fill:#f9ed9d;}.cls-5{fill:#d4b331;}.cls-6{fill:#df871e;}</style></defs><title>Trofeo</title><polygon class="cls-1" points="240.42 16.9 240.42 60.92 127.13 60.92 109.3 60.92 109.3 16.9 85.71 16.9 39.16 16.9 15.57 16.9 15.57 40.49 15.57 157.19 38.84 157.19 38.84 180.78 62.44 180.78 62.44 157.19 39.16 157.19 39.16 40.49 85.71 40.49 85.71 60.92 86.03 60.92 86.03 180.78 62.44 180.78 62.44 204.37 86.03 204.37 104.45 204.37 104.45 227.96 125.37 227.96 125.37 251.55 143.26 251.55 143.26 271.74 164.48 271.74 164.48 292.6 143.26 292.6 143.26 312.79 164.48 312.79 164.48 338.64 143.26 338.64 143.26 358.83 102.82 358.83 102.82 379.02 247.38 379.02 247.38 358.83 206.94 358.83 206.94 338.64 185.72 338.64 185.72 312.79 206.94 312.79 206.94 292.6 185.72 292.6 185.72 271.74 206.94 271.74 206.94 251.55 223.83 251.55 223.83 227.96 244.75 227.96 244.75 204.37 263.7 204.37 264.18 204.37 287.29 204.37 287.29 180.78 264.18 180.78 264.18 60.92 264.01 60.92 264.01 40.49 310.57 40.49 310.57 157.19 287.29 157.19 287.29 180.78 310.88 180.78 310.88 157.19 334.16 157.19 334.16 40.49 334.16 16.9 310.57 16.9 264.01 16.9 240.42 16.9"/><rect class="cls-2" x="191.6" y="236.5" width="140.29" height="23.59" transform="translate(-236.5 331.89) rotate(-90)"/><rect class="cls-2" x="273.22" y="318.44" width="23.59" height="23.59" transform="translate(-295.16 437.11) rotate(-90)"/><rect class="cls-2" x="296.81" y="342.03" width="23.59" height="23.59" transform="translate(-295.16 484.29) rotate(-90)"/><rect class="cls-2" x="309.88" y="188.36" width="44.02" height="23.59" transform="translate(-118.21 353.9) rotate(-90)"/><rect class="cls-2" width="70.15" height="23.59"/><rect class="cls-2" x="486.6" y="236.5" width="140.29" height="23.59" transform="translate(58.51 626.89) rotate(-90)"/><rect class="cls-2" x="521.67" y="318.44" width="23.59" height="23.59" transform="translate(-46.71 685.55) rotate(-90)"/><rect class="cls-2" x="498.08" y="342.03" width="23.59" height="23.59" transform="translate(-93.89 685.55) rotate(-90)"/><rect class="cls-2" x="464.59" y="188.36" width="44.02" height="23.59" transform="translate(36.5 508.61) rotate(-90)"/><rect class="cls-2" x="498.39" y="178.14" width="70.15" height="23.59" transform="translate(816.99 201.73) rotate(180)"/><rect class="cls-3" x="70.46" y="44.02" width="178.15" height="143.45"/><rect class="cls-4" x="93.74" y="44.02" width="17.83" height="71.73"/><rect class="cls-4" x="93.74" y="134.44" width="17.83" height="17.83"/><rect class="cls-3" x="88.89" y="187.47" width="140.29" height="23.59"/><rect class="cls-3" x="109.8" y="211.06" width="98.46" height="23.59"/><rect class="cls-2" x="127.69" y="234.65" width="63.69" height="20.19"/><rect class="cls-2" x="127.69" y="321.74" width="63.69" height="20.19"/><rect class="cls-5" x="87.25" y="341.93" width="144.56" height="20.19"/><rect class="cls-6" x="148.91" y="254.84" width="21.24" height="66.9"/><rect class="cls-2" x="127.69" y="275.7" width="63.69" height="20.19"/></svg>