<?xml version="1.0" encoding="iso-8859-1"?>
<!-- Generator: Adobe Illustrator 19.0.0, SVG Export Plug-In . SVG Version: 6.00 Build 0)  -->
<svg version="1.1" id="Layer_1" xmlns="http://www.w3.org/2000/svg" xmlns:xlink="http://www.w3.org/1999/xlink" x="0px" y="0px"
	 viewBox="0 0 512 512" style="enable-background:new 0 0 512 512;" xml:space="preserve">
<path style="fill:#A35895;" d="M511.999,255.406c0.144,64.931-23.883,124.266-63.632,169.489
	c-8.583,9.771-17.909,18.886-27.869,27.247c-15.611,13.124-32.81,24.405-51.274,33.52c-8.849,4.364-17.976,8.239-27.369,11.581
	c-8.416,2.998-17.043,5.574-25.837,7.683c-12.458,2.987-25.26,5.074-38.339,6.162c-4.308,0.366-8.649,0.622-13.013,0.766
	c-2.676,0.089-5.374,0.133-8.072,0.144c-2.842,0.011-5.663-0.033-8.483-0.122c-4.63-0.144-9.227-0.411-13.79-0.788
	c-13.091-1.099-25.892-3.175-38.339-6.173c-8.794-2.11-17.421-4.674-25.837-7.672c-9.393-3.342-18.531-7.217-27.38-11.592
	c-18.131-8.96-35.053-20.008-50.441-32.821c-9.971-8.294-19.308-17.343-27.913-27.047c-39.949-45.045-64.265-104.269-64.409-169.2
	C-0.321,115.195,114.03,0.323,255.417,0.001C396.793-0.321,511.677,114.019,511.999,255.406z"/>
<path style="fill:#EB305B;" d="M420.497,452.136c-42.414,35.63-96.564,57.736-155.832,59.713c-2.676,0.089-5.374,0.133-8.072,0.144
	c-2.842,0.011-5.663-0.033-8.483-0.122c-59.157-1.788-113.296-23.661-155.788-59.046c23.594-24.349,52.573-43.458,85.005-55.438
	c1.732-0.644,3.475-1.266,5.23-1.865c1.743-0.6,3.509-1.177,5.274-1.732c5.285-1.677,10.659-3.153,16.1-4.441
	c14.256-3.364,29.024-5.396,44.179-5.951c2.687-0.111,5.385-0.155,8.105-0.167c2.831-0.011,5.651,0.033,8.449,0.144
	c20.685,0.7,40.693,4.153,59.646,10.004c1.776,0.533,3.542,1.099,5.296,1.688c1.754,0.588,3.509,1.199,5.241,1.832
	C367.491,408.745,396.681,427.798,420.497,452.136z"/>
<path style="fill:#D32654;" d="M230.301,384.751l-11.947,14.645c0,0-63.077,25.726-97.463,74.058
	c-10.004-6.218-19.553-13.124-28.568-20.63c29.878-30.822,68.373-53.273,111.608-63.477
	C212.547,387.316,221.341,385.773,230.301,384.751z"/>
<path style="fill:#E0B775;" d="M329.607,395.066c-9.526,31.622-38.872,54.661-73.603,54.661c-34.553,0-63.787-22.817-73.447-54.205
	c6.973-2.398,14.112-4.452,21.373-6.173c14.256-3.364,29.024-5.396,44.179-5.951c2.687-0.111,5.385-0.155,8.105-0.167
	c2.831-0.011,5.651,0.033,8.449,0.144C287.293,384.141,309.101,388.193,329.607,395.066z"/>
<path style="fill:#D32654;" d="M334.848,396.898c-5.03,16.51-15.4,31.333-29.246,41.792c-14.379,10.848-31.533,16.588-49.598,16.588
	c-17.976,0-35.053-5.685-49.387-16.444c-13.801-10.359-24.194-25.06-29.29-41.448c1.732-0.644,3.475-1.266,5.23-1.865
	c1.743-0.6,3.509-1.177,5.274-1.732l0.033,0.1c9.26,30.078,36.64,50.286,68.14,50.286c31.211,0,59.291-20.852,68.284-50.708
	l0.022-0.089c1.776,0.533,3.542,1.099,5.296,1.688C331.361,395.654,333.116,396.265,334.848,396.898z"/>
<g>
	<path style="fill:#EFC881;" d="M187.235,242.856c0-17.945-16.76-32.492-37.435-32.492s-37.435,14.547-37.435,32.492
		s16.76,45.1,37.435,45.1S187.235,260.801,187.235,242.856z"/>
	<path style="fill:#EFC881;" d="M399.638,242.856c0-17.945-16.76-32.492-37.435-32.492c-20.675,0-37.435,14.547-37.435,32.492
		s16.76,45.1,37.435,45.1C382.878,287.955,399.638,260.801,399.638,242.856z"/>
</g>
<g>
	<path style="fill:#E0B775;" d="M385.073,248.218c0-10.589-6.462-19.174-14.434-19.174s-14.434,8.584-14.434,19.174
		c0,10.589,6.462,11.957,14.434,11.957C378.611,260.174,385.073,258.808,385.073,248.218z"/>
	<path style="fill:#E0B775;" d="M155.793,248.218c0-10.589-6.462-19.174-14.434-19.174c-7.972,0-14.434,8.584-14.434,19.174
		c0,10.589,6.462,11.957,14.434,11.957C149.331,260.174,155.793,258.808,155.793,248.218z"/>
</g>
<path style="fill:#F9D387;" d="M371.344,211.953v66.741c0,12.602-1.654,24.793-4.741,36.296c-1.133,4.23-2.443,8.35-3.964,12.369
	c-12.524,33.676-37.706,60.101-68.995,72.037c-0.733,0.289-1.466,0.566-2.198,0.822c-11.17,4.008-23.083,6.151-35.441,6.151
	c-12.369,0-24.282-2.143-35.441-6.151c-0.744-0.255-1.477-0.533-2.21-0.822c-23.239-8.86-43.091-25.715-56.915-47.61
	c-4.797-7.583-8.86-15.766-12.08-24.427c-1.521-4.019-2.831-8.139-3.953-12.369c-3.098-11.503-4.752-23.694-4.752-36.296v-66.741
	c0-40.215,16.799-76.079,43.047-99.473c19.775-17.643,44.923-28.202,72.303-28.202c31.844,0,60.678,14.29,81.552,37.406
	C358.431,144.78,371.344,176.701,371.344,211.953z"/>
<g>
	<path style="fill:#4D4D4D;" d="M320.205,245.043v22.512c0,4.213-3.408,7.62-7.62,7.62c-4.063,0-7.381-3.179-7.6-7.193
		c-0.01-0.139-0.01-0.289-0.01-0.427v-22.512c0-4.213,3.408-7.62,7.61-7.62c2.106,0,4.014,0.854,5.384,2.225
		c0.984,0.984,1.699,2.235,2.026,3.626C320.135,243.841,320.205,244.437,320.205,245.043z"/>
	<path style="fill:#4D4D4D;" d="M199.41,275.174L199.41,275.174c-4.206,0-7.617-3.41-7.617-7.617v-22.518
		c0-4.206,3.41-7.617,7.617-7.617l0,0c4.206,0,7.617,3.41,7.617,7.617v22.518C207.026,271.764,203.617,275.174,199.41,275.174z"/>
</g>
<g>
	<path style="fill:#68635B;" d="M331.096,217.437c0-10.22-8.285-18.506-18.506-18.506s-18.506,8.285-18.506,18.506l0,0
		C304.305,207.217,320.876,207.217,331.096,217.437L331.096,217.437z"/>
	<path style="fill:#68635B;" d="M217.915,217.437c0-10.22-8.285-18.506-18.506-18.506s-18.506,8.285-18.506,18.506l0,0
		C191.125,207.217,207.695,207.217,217.915,217.437L217.915,217.437z"/>
</g>
<g>
	<path style="fill:#666666;" d="M320.2,245.043v22.512c0,4.213-3.408,7.62-7.62,7.62c-4.064,0-7.381-3.179-7.6-7.193
		c8.524-8.763,12.845-18.11,15.01-24.707C320.131,243.841,320.2,244.437,320.2,245.043z"/>
	<path style="fill:#666666;" d="M207.02,245.043v22.512c0,4.213-3.408,7.62-7.62,7.62c-4.064,0-7.381-3.179-7.6-7.193
		c8.524-8.763,12.845-18.11,15.01-24.707C206.95,243.841,207.02,244.437,207.02,245.043z"/>
</g>
<path style="fill:#E0B775;" d="M274.089,298.675c0-0.567-0.114-1.121-0.331-1.658c-2.302-5.685-3.93-11.609-3.882-17.743
	c0.006-0.685,0.008-1.383,0.008-2.095c0-34.249-6.216-54.758-13.882-54.758c-7.667,0-13.882,20.51-13.882,54.758
	c0,0.712,0.002,1.41,0.008,2.095c0.049,6.133-1.581,12.058-3.882,17.743c-0.218,0.536-0.331,1.09-0.331,1.658
	c0,2.796,2.754,5.276,7.016,6.867c2.535,7.915,6.55,9.008,11.071,9.008s8.537-1.093,11.071-9.008
	C271.336,303.952,274.089,301.471,274.089,298.675z"/>
<path style="fill:#4D4D4D;" d="M297.417,332.599c-0.011,0.111-0.011,0.211-0.022,0.322c-0.044,0.633-0.111,1.266-0.211,1.888
	c-0.078,0.489-0.167,0.966-0.278,1.443c-0.078,0.344-0.167,0.688-0.255,1.033c-0.366,1.321-0.855,2.609-1.466,3.864
	c-1.943,4.064-5.063,7.728-9.071,10.77c-7.572,5.729-18.254,9.304-30.112,9.304c-11.858,0-22.539-3.575-30.112-9.304
	c-4.008-3.042-7.128-6.706-9.071-10.77c-0.611-1.255-1.099-2.543-1.466-3.864c-0.089-0.344-0.178-0.688-0.255-1.033
	c-0.111-0.477-0.2-0.955-0.278-1.443c-0.1-0.622-0.167-1.255-0.211-1.888c-0.011-0.111-0.011-0.211-0.022-0.322
	c1.454,0.289,2.931,0.566,4.441,0.822c11.159,1.932,23.705,3.009,36.973,3.009c13.268,0,25.815-1.077,36.973-3.009
	C294.486,333.165,295.962,332.887,297.417,332.599z"/>
<path style="fill:#F2F2F2;" d="M297.417,332.599c-0.011,0.111-0.011,0.211-0.022,0.322c-0.044,0.633-0.111,1.266-0.211,1.888
	c-0.078,0.489-0.167,0.966-0.278,1.443c-0.078,0.344-0.167,0.688-0.255,1.033c-0.366,1.321-0.855,2.609-1.466,3.864
	c-3.997,0.622-8.161,1.155-12.458,1.577c-8.449,0.844-17.421,1.288-26.725,1.288c-9.304,0-18.276-0.444-26.725-1.288
	c-4.297-0.422-8.461-0.955-12.458-1.577c-0.611-1.255-1.099-2.543-1.466-3.864c-0.089-0.344-0.178-0.688-0.255-1.033
	c-0.111-0.477-0.2-0.955-0.278-1.443c-0.1-0.622-0.167-1.255-0.211-1.888c-0.011-0.111-0.011-0.211-0.022-0.322
	c1.454,0.289,2.931,0.566,4.441,0.822c11.159,1.932,23.705,3.009,36.973,3.009s25.815-1.077,36.973-3.009
	C294.486,333.165,295.962,332.887,297.417,332.599z"/>
<path style="fill:#FFFFFF;" d="M292.976,333.42c-1.81,2.587-4.13,4.952-6.862,7.028c-1.066,0.811-2.198,1.577-3.386,2.276
	c-8.449,0.844-17.421,1.288-26.725,1.288c-9.304,0-18.276-0.444-26.725-1.288c-1.188-0.699-2.321-1.466-3.386-2.276
	c-2.731-2.076-5.052-4.441-6.862-7.028c11.159,1.932,23.705,3.009,36.973,3.009C269.271,336.429,281.817,335.352,292.976,333.42z"/>
<g>
	<path style="fill:#EFC881;" d="M277.766,370.074c0-4.541-9.743,0.484-21.763,0.484s-21.763-5.024-21.763-0.484
		c0,4.54,9.743,8.222,21.763,8.222C268.021,378.295,277.766,374.614,277.766,370.074z"/>
	<path style="fill:#EFC881;" d="M161.097,309.14l-0.155-1.189c-1.619-12.394-8.703-23.084-18.896-28.517l-1.389-0.741
		c0,12.608,1.651,24.795,4.744,36.301c1.127,4.223,2.438,8.343,3.958,12.361c12.531,33.675,37.71,60.11,68.997,72.036
		c-6.144-27.8-20.859-50.567-39.985-62.658C169.107,330.877,162.624,320.829,161.097,309.14z"/>
	<path style="fill:#EFC881;" d="M351.062,307.951l-0.155,1.189c-1.527,11.689-8.011,21.737-17.276,27.595
		c-19.125,12.091-33.84,34.858-39.985,62.658c31.287-11.926,56.466-38.361,68.997-72.036c1.52-4.019,2.831-8.14,3.958-12.361
		c3.093-11.505,4.744-23.693,4.744-36.301l-1.389,0.741C359.764,284.867,352.68,295.558,351.062,307.951z"/>
</g>
<path style="fill:#F0A037;" d="M394.538,218.908c0,0-9.26-14.545-23.183-14.545l-9.149,37.207
	c-5.206-44.124-30.445-70.771-30.445-70.771s-19.029,15.32,6.562,51.918c0,0-58.38-23.783-50.242-69.683
	c0,0-9.615,13.324-5.174,37.751c0,0-20.729-18.498-20.729-39.971c0,0-7.406,31.078-0.011,48.11
	c-0.477-0.2-15.689-7.039-25.16-31.822c-25.16,17.765-14.8,64.398-14.8,64.398c-33.787-23.838-19.242-57.736-19.242-57.736
	c-24.993,7.35-25.082,47.168-25.082,47.623c-13.708-9.506-14.889-26.894-14.889-26.894c-12.957,12.946-13.202,47.077-13.202,47.077
	c-9.493-16.577-9.138-37.207-9.138-37.207c-13.934,0-23.194,14.545-23.194,14.545c0-35.985,22.584-56.992,22.584-56.992
	c-20.73-9.615-38.494,2.965-38.494,2.965c15.544-42.192,66.619-55.516,66.619-55.516c-23.383-6.573-47.488,7.761-48.099,8.127
	c23.683-39.216,67.351-36.252,67.351-36.252c-7.039-7.039-31.089-8.15-31.089-8.15c26.647-13.324,61.434-5.918,61.434-5.918
	c-8.783-13.723-36.274-20.73-36.274-20.73c36.274-11.836,62.177,11.847,62.177,11.847c2.965-11.103-7.894-23.183-7.894-23.183
	c18.009,9.371,20.23,20.219,20.23,20.219s2.221-10.848,20.219-20.219c0,0-10.859,12.08-7.894,23.183
	c0,0,25.904-23.683,62.177-11.847c0,0-27.491,7.006-36.274,20.73c0,0,34.797-7.406,61.445,5.918c0,0-24.06,1.11-31.089,8.15
	c0,0,43.657-2.965,67.34,36.252c-0.611-0.366-24.716-14.701-48.099-8.127c0,0,51.074,13.324,66.619,55.516
	c0,0-17.765-12.58-38.494-2.965C371.954,161.917,394.538,182.924,394.538,218.908z"/>
<path style="fill:#DD9033;" d="M231.089,70.138c0,0,16.255,10.337,24.405,18.487c-1.033-0.289-36.596-10.004-59.935,13.335
	l19.986,2.965c0,0-45.878,5.185-61.422,36.263c0.611-0.266,20.296-8.871,40.693-8.871c0,0-28.591,21.151-31.822,62.177
	c-12.957,12.946-13.202,47.077-13.202,47.077c-9.493-16.577-9.138-37.207-9.138-37.207c-13.934,0-23.194,14.545-23.194,14.545
	c0-35.985,22.584-56.992,22.584-56.992c-20.73-9.615-38.494,2.965-38.494,2.965c15.544-42.192,66.619-55.516,66.619-55.516
	c-23.383-6.573-47.488,7.761-48.099,8.127c23.683-39.216,67.351-36.252,67.351-36.252c-7.039-7.039-31.089-8.15-31.089-8.15
	c26.647-13.324,61.434-5.918,61.434-5.918c-8.783-13.723-36.274-20.73-36.274-20.73c36.274-11.836,62.177,11.847,62.177,11.847
	c2.965-11.103-7.894-23.183-7.894-23.183c18.009,9.371,20.23,20.219,20.23,20.219l7.65,22.206
	C263.655,77.534,254.772,70.138,231.089,70.138z"/>
<path style="fill:#68635B;" d="M345.63,480.021c0,6.151-1.355,11.991-3.775,17.221c-8.416,2.998-17.043,5.574-25.837,7.683
	c-12.458,2.987-25.26,5.074-38.339,6.162c-4.241-3.664-7.717-8.194-10.182-13.302h-22.995c-2.454,5.107-5.94,9.638-10.182,13.302
	c-13.091-1.099-25.892-3.175-38.339-6.173c-8.794-2.11-17.421-4.674-25.837-7.672c-2.42-5.23-3.775-11.07-3.775-17.221
	c0-22.684,18.387-41.082,41.082-41.082h97.097C327.243,438.94,345.63,457.338,345.63,480.021z"/>
<g>
	<path style="fill:#F9D387;" d="M197.981,494.456c0,3.697-0.711,7.228-1.999,10.459c-18.62-4.463-36.44-10.97-53.217-19.264
		c3.697-11.325,14.345-19.508,26.903-19.508C185.312,466.143,197.981,478.822,197.981,494.456z"/>
	<path style="fill:#F9D387;" d="M369.224,485.662c-16.777,8.283-34.597,14.789-53.206,19.264c-1.299-3.242-2.01-6.773-2.01-10.47
		c0-15.633,12.68-28.313,28.313-28.313C354.89,466.143,365.538,474.326,369.224,485.662z"/>
</g>
<g>
</g>
<g>
</g>
<g>
</g>
<g>
</g>
<g>
</g>
<g>
</g>
<g>
</g>
<g>
</g>
<g>
</g>
<g>
</g>
<g>
</g>
<g>
</g>
<g>
</g>
<g>
</g>
<g>
</g>
</svg>
