<?xml version="1.0" encoding="iso-8859-1"?>
<!-- Generator: Adobe Illustrator 19.0.0, SVG Export Plug-In . SVG Version: 6.00 Build 0)  -->
<svg version="1.1" id="Layer_1" xmlns="http://www.w3.org/2000/svg" xmlns:xlink="http://www.w3.org/1999/xlink" x="0px" y="0px"
	 viewBox="0 0 511.999 511.999" style="enable-background:new 0 0 511.999 511.999;" xml:space="preserve">
<path style="fill:#A35895;" d="M511.998,255.405c0.144,64.931-23.883,124.266-63.632,169.489
	c-8.583,9.771-17.909,18.886-27.869,27.247c-42.414,35.63-96.564,57.736-155.832,59.712c-2.676,0.089-5.374,0.133-8.072,0.144
	c-2.842,0.011-5.663-0.033-8.483-0.122c-59.157-1.788-113.296-23.661-155.787-59.046c-9.971-8.294-19.308-17.343-27.913-27.047
	c-39.949-45.045-64.265-104.269-64.409-169.2C-0.321,115.195,114.03,0.323,255.417,0.001
	C396.792-0.321,511.676,114.018,511.998,255.405z"/>
<path style="fill:#DD9033;" d="M242.627,119.032c-5.963-25.47-28.809-44.435-56.097-44.435c-45.002,0-81.488,36.486-81.488,81.496
	v172.822c0,21.973-17.818,39.791-39.791,39.791H54.236c0,0,54.725,36.842,110.24,12.415l70.347-41.345"/>
<path style="fill:#F2F2F2;" d="M420.496,452.141c-12.025,10.093-24.982,19.108-38.739,26.881
	c-8.238,4.663-16.766,8.871-25.537,12.602c-9.138,3.897-18.542,7.273-28.191,10.104c-18.786,5.496-38.472,8.894-58.791,9.926
	c-1.521,0.089-3.042,0.144-4.574,0.2c-2.676,0.089-5.374,0.133-8.072,0.144c-2.842,0.011-5.663-0.033-8.483-0.122
	c-1.51-0.044-3.031-0.111-4.53-0.189c-20.308-0.966-39.993-4.297-58.78-9.726c-7.239-2.087-14.356-4.497-21.318-7.195
	c-26.059-10.104-50.042-24.36-71.16-41.936c12.202-12.591,25.837-23.783,40.659-33.298c13.823-8.905,28.69-16.344,44.346-22.14
	c1.732-0.644,3.475-1.266,5.23-1.865c1.743-0.6,3.509-1.177,5.274-1.732c4.053-1.288,8.172-2.454,12.324-3.509
	c1.255-0.322,2.509-0.633,3.775-0.933c14.256-3.364,29.023-5.396,44.179-5.951c2.687-0.111,5.385-0.155,8.105-0.167
	c2.831-0.011,5.651,0.033,8.449,0.144c16.499,0.555,32.554,2.865,47.999,6.751c3.919,0.988,7.805,2.065,11.647,3.253
	c1.777,0.533,3.542,1.099,5.296,1.688s3.509,1.199,5.241,1.832c7.306,2.654,14.434,5.663,21.373,9.016
	c8.849,4.275,17.376,9.093,25.537,14.434C395.814,429.524,408.794,440.194,420.496,452.141z"/>
<path style="fill:#4EADB7;" d="M269.239,424.561v87.093c-1.521,0.089-3.042,0.144-4.574,0.2c-2.676,0.089-5.374,0.133-8.072,0.144
	c-2.842,0.011-5.663-0.033-8.483-0.122c-1.51-0.044-3.031-0.111-4.53-0.189v-87.126H269.239z"/>
<path style="fill:#E6E6E6;" d="M230.305,384.754l-11.947,14.645c0,0-63.077,25.726-97.463,74.058
	c-10.004-6.218-19.553-13.124-28.568-20.63c29.878-30.822,68.373-53.273,111.608-63.476
	C212.551,387.319,221.345,385.775,230.305,384.754z"/>
<path style="fill:#E0B775;" d="M312.67,390.128v9.86c-14.023,15.111-34.075,24.571-56.326,24.571
	c-22.184,0-42.17-9.404-56.182-24.438v-9.837c1.255-0.322,2.509-0.633,3.775-0.933c14.256-3.364,29.023-5.396,44.179-5.951
	c2.687-0.111,5.385-0.155,8.105-0.167c2.831-0.011,5.651,0.033,8.449,0.144C281.17,383.932,297.225,386.242,312.67,390.128z"/>
<g>
	<path style="fill:#E6E6E6;" d="M256.416,424.558l-41.77,31.834l-40.393-59.491l30.756-17.47
		C205.009,379.431,249.909,423.837,256.416,424.558z"/>
	<path style="fill:#E6E6E6;" d="M338.579,396.901l-40.393,59.491l-41.77-31.834c6.506-0.722,41.335-45.127,41.335-45.127
		L338.579,396.901z"/>
</g>
<g>
	<path style="fill:#EFC881;" d="M192.31,254.1c0-17.945-15.523-32.492-34.672-32.492s-34.672,14.547-34.672,32.492
		s15.523,45.1,34.672,45.1S192.31,272.045,192.31,254.1z"/>
	<path style="fill:#EFC881;" d="M389.032,254.1c0-17.945-15.523-32.492-34.672-32.492c-19.148,0-34.672,14.547-34.672,32.492
		s15.523,45.1,34.672,45.1C373.509,299.201,389.032,272.045,389.032,254.1z"/>
</g>
<path style="fill:#F9D387;" d="M373.552,250.597c0,19.53-2.454,38.239-6.951,55.593c-15.877,61.211-57.192,105.335-106.068,107.3
	c-0.155,0.011-0.3,0.022-0.444,0.022c-0.988,0.044-1.987,0.056-2.987,0.056c-0.999,0-1.999-0.011-2.987-0.056
	c-0.144,0-0.289-0.011-0.433-0.022c-48.887-1.965-90.201-46.089-106.079-107.3c-4.497-17.354-6.951-36.063-6.951-55.593
	c0-13.723,1.21-26.536,3.497-38.406c12.68-66.03,58.436-102.803,112.952-102.803c56.093,0,102.915,38.939,113.973,108.61
	C372.697,228.214,373.552,239.083,373.552,250.597z"/>
<path style="fill:#EFC881;" d="M366.602,306.194c-15.873,61.212-57.193,105.333-106.073,107.291
	c22.459-1.741,66.55-36.335,70.308-54.136C334.551,341.707,363.221,309.241,366.602,306.194z"/>
<g>
	<path style="fill:#4D4D4D;" d="M320.204,257.256v22.512c0,4.213-3.408,7.62-7.62,7.62c-4.063,0-7.381-3.179-7.6-7.193
		c-0.01-0.139-0.01-0.289-0.01-0.427v-22.512c0-4.213,3.408-7.62,7.61-7.62c2.106,0,4.014,0.854,5.384,2.225
		c0.984,0.984,1.699,2.235,2.026,3.626C320.135,256.053,320.204,256.65,320.204,257.256z"/>
	<path style="fill:#4D4D4D;" d="M199.41,287.386L199.41,287.386c-4.206,0-7.617-3.41-7.617-7.617v-22.518
		c0-4.206,3.41-7.617,7.617-7.617l0,0c4.206,0,7.617,3.41,7.617,7.617v22.518C207.026,283.977,203.616,287.386,199.41,287.386z"/>
</g>
<g>
	<path style="fill:#68635B;" d="M331.095,229.65c0-10.22-8.285-18.506-18.506-18.506c-10.22,0-18.505,8.285-18.505,18.506l0,0
		C304.305,219.431,320.875,219.431,331.095,229.65L331.095,229.65z"/>
	<path style="fill:#68635B;" d="M217.915,229.65c0-10.22-8.285-18.506-18.506-18.506c-10.22,0-18.506,8.285-18.506,18.506l0,0
		C191.125,219.431,207.694,219.431,217.915,229.65L217.915,229.65z"/>
</g>
<g>
	<path style="fill:#666666;" d="M320.2,257.256v22.512c0,4.213-3.408,7.62-7.62,7.62c-4.064,0-7.381-3.179-7.6-7.193
		c8.524-8.763,12.845-18.11,15.01-24.707C320.13,256.053,320.2,256.65,320.2,257.256z"/>
	<path style="fill:#666666;" d="M207.019,257.256v22.512c0,4.213-3.408,7.62-7.62,7.62c-4.064,0-7.381-3.179-7.6-7.193
		c8.524-8.763,12.845-18.11,15.01-24.707C206.951,256.053,207.019,256.65,207.019,257.256z"/>
</g>
<path style="fill:#4D4D4D;" d="M297.416,344.811c-0.011,0.111-0.011,0.211-0.022,0.322c-0.044,0.633-0.111,1.266-0.211,1.888
	c-0.078,0.489-0.167,0.966-0.278,1.443c-0.078,0.344-0.167,0.688-0.255,1.033c-0.366,1.321-0.855,2.609-1.466,3.864
	c-1.943,4.064-5.063,7.728-9.071,10.77c-7.572,5.729-18.253,9.304-30.112,9.304s-22.539-3.575-30.112-9.304
	c-4.008-3.042-7.128-6.706-9.071-10.77c-0.611-1.255-1.099-2.543-1.466-3.864c-0.089-0.344-0.178-0.688-0.255-1.033
	c-0.111-0.477-0.2-0.955-0.278-1.443c-0.1-0.622-0.167-1.255-0.211-1.888c-0.011-0.111-0.011-0.211-0.022-0.322
	c1.454,0.289,2.931,0.566,4.441,0.822c11.159,1.932,23.705,3.009,36.973,3.009s25.815-1.077,36.973-3.009
	C294.485,345.378,295.963,345.1,297.416,344.811z"/>
<path style="fill:#F2F2F2;" d="M297.416,344.811c-0.011,0.111-0.011,0.211-0.022,0.322c-0.044,0.633-0.111,1.266-0.211,1.888
	c-0.078,0.489-0.167,0.966-0.278,1.443c-0.078,0.344-0.167,0.688-0.255,1.033c-0.366,1.321-0.855,2.609-1.466,3.864
	c-3.997,0.622-8.161,1.155-12.458,1.577c-8.449,0.844-17.421,1.288-26.725,1.288c-9.304,0-18.276-0.444-26.725-1.288
	c-4.297-0.422-8.461-0.955-12.458-1.577c-0.611-1.255-1.099-2.543-1.466-3.864c-0.089-0.344-0.178-0.688-0.255-1.033
	c-0.111-0.477-0.2-0.955-0.278-1.443c-0.1-0.622-0.167-1.255-0.211-1.888c-0.011-0.111-0.011-0.211-0.022-0.322
	c1.454,0.289,2.931,0.566,4.441,0.822c11.159,1.932,23.705,3.009,36.973,3.009c13.268,0,25.815-1.077,36.973-3.009
	C294.485,345.378,295.963,345.1,297.416,344.811z"/>
<path style="fill:#FFFFFF;" d="M292.975,345.633c-1.81,2.587-4.13,4.952-6.862,7.028c-1.066,0.811-2.198,1.577-3.386,2.276
	c-8.449,0.844-17.421,1.288-26.725,1.288s-18.276-0.444-26.725-1.288c-1.188-0.699-2.321-1.466-3.386-2.276
	c-2.731-2.076-5.052-4.441-6.862-7.028c11.159,1.932,23.705,3.009,36.973,3.009S281.816,347.565,292.975,345.633z"/>
<path style="fill:#E0B775;" d="M246.117,291.477c0-32.691,4.425-52.267,9.883-52.267s9.883,19.577,9.883,52.267
	s-4.425,35.672-9.883,35.672S246.117,324.168,246.117,291.477z"/>
<g>
	<path style="fill:#EFC881;" d="M277.765,381.176c0-4.541-9.743,0.484-21.763,0.484c-12.02,0-21.763-5.024-21.763-0.484
		s9.743,8.222,21.763,8.222S277.765,385.717,277.765,381.176z"/>
	<path style="fill:#EFC881;" d="M147.607,306.194C163.48,367.406,204.8,411.527,253.68,413.485
		c-22.459-1.741-66.55-36.335-70.308-54.136C179.658,341.707,150.988,309.241,147.607,306.194z"/>
</g>
<g>
	<ellipse style="fill:#FCD99D;" cx="190.385" cy="303.836" rx="20.541" ry="8.513"/>
	<ellipse style="fill:#FCD99D;" cx="321.623" cy="303.836" rx="20.541" ry="8.513"/>
</g>
<path style="fill:#5EC2D3;" d="M372.349,218.576L346.9,285.872c-3.697-16.81-18.698-29.423-36.596-29.423
	c-15.789,0-29.312,9.815-34.83,23.661c-5.13-4.241-11.614-6.617-18.365-6.617s-13.235,2.376-18.365,6.617
	c-5.518-13.846-19.042-23.661-34.83-23.661c-17.898,0-32.898,12.613-36.596,29.423l-25.47-67.318
	c-0.056,1.654-0.089,3.32-0.089,4.996v5.119l24.693,66.119c0.455,20.274,17.077,36.629,37.462,36.629
	c20.663,0,37.473-16.81,37.473-37.484c0-2.72-0.3-5.374-0.844-7.939c4.352-4.43,10.315-6.951,16.566-6.951
	c6.251,0,12.213,2.52,16.566,6.951c-0.555,2.565-0.855,5.218-0.855,7.939c0,20.674,16.821,37.484,37.484,37.484
	c20.385,0,37.007-16.355,37.462-36.629l24.682-66.097v-5.141C372.449,221.885,372.415,220.23,372.349,218.576z M203.915,325.865
	c-17.609,0-31.932-14.323-31.932-31.932c0-17.609,14.323-31.932,31.932-31.932c17.598,0,31.921,14.323,31.921,31.932
	C235.836,311.542,221.513,325.865,203.915,325.865z M310.305,325.865c-17.609,0-31.932-14.323-31.932-31.932
	c0-17.609,14.323-31.932,31.932-31.932c17.609,0,31.932,14.323,31.932,31.932C342.237,311.542,327.914,325.865,310.305,325.865z"/>
<rect x="184.8" y="444.978" style="fill:#D32654;" width="143.23" height="26.092"/>
<path style="fill:#F0A037;" d="M371.076,217.999h-0.833c0,0-15.8-43.013-37.262-43.013c-21.473,0-40.715,19.253-76.978,19.253
	c-36.274,0-55.515-19.253-76.978-19.253c-6.418,0-12.336,3.842-17.465,9.238c-8.083,8.494-14.234,20.796-17.41,27.969
	c0-66.03,31.91-119.458,112.952-119.458C349.048,92.734,371.076,142.42,371.076,217.999z"/>
<path style="fill:#FFFFFF;" d="M328.03,471.071v10.67c-18.039,5.496-36.942,8.894-56.453,9.926c-1.46,0.089-2.921,0.144-4.392,0.2
	c-2.569,0.089-5.161,0.133-7.751,0.144c-2.729,0.011-5.437-0.033-8.145-0.122c-1.45-0.044-2.911-0.111-4.35-0.189
	c-19.5-0.966-38.403-4.297-56.443-9.726l19.616-10.903h-8.961c-2.863,0-5.185-2.322-5.185-5.185v-9.615
	c0-2.863,2.322-5.185,5.185-5.185h121.41v19.986L328.03,471.071L328.03,471.071z"/>
<path style="fill:#EB305B;" d="M328.03,471.071v30.656c-18.786,5.496-38.472,8.894-58.791,9.926c-1.521,0.089-3.042,0.144-4.574,0.2
	c-2.676,0.089-5.374,0.133-8.072,0.144c-2.842,0.011-5.663-0.033-8.483-0.122c-1.51-0.044-3.031-0.111-4.53-0.189
	c-20.308-0.966-39.993-4.297-58.78-9.726v-30.889L328.03,471.071L328.03,471.071z"/>
<g>
	<rect x="195.97" y="455.715" style="fill:#E6E6E6;" width="126.597" height="3.701"/>
	<rect x="195.97" y="463.487" style="fill:#E6E6E6;" width="126.597" height="3.701"/>
</g>
<path style="fill:#DD9033;" d="M257.103,92.734c0,0-91.612,15.333-95.542,91.489c-8.083,8.494-14.234,20.796-17.41,27.969
	C144.151,146.162,176.062,92.734,257.103,92.734z"/>
<g>
</g>
<g>
</g>
<g>
</g>
<g>
</g>
<g>
</g>
<g>
</g>
<g>
</g>
<g>
</g>
<g>
</g>
<g>
</g>
<g>
</g>
<g>
</g>
<g>
</g>
<g>
</g>
<g>
</g>
</svg>
